<svg version="1.1" id="oiologo" xmlns="http://www.w3.org/2000/svg" xmlns:xlink="http://www.w3.org/1999/xlink" x="0px" y="0px" width="70px" height="70px" viewBox="0 0 70 70" style="enable-background:new 0 0 700 700;" xml:space="preserve">
<g>
	<g>
		<polygon points="0,0 30,0 30,10 10,10 10,60 60,60 60,40 70,40 70,70 0,70 "/>
		<polygon points="20,20 30,20 30,40 50,40 50,50 20,50 "/>
		<polygon points="40,0 70,0 70,30 40,30 40,10 50,10 50,20 60,20 60,10 40,10"/>
		<polygon points="0,40 10,40 10,50 0,50 " fill="#ffffff"/>
		<polygon points="20,60 30,60 30,70 20,70 " fill="#ffffff"/>
	</g>
</g>
<g>
</g>
<g>
</g>
<g>
</g>
<g>
</g>
<g>
</g>
<g>
</g>
<g>
</g>
<g>
</g>
<g>
</g>
<g>
</g>
<g>
</g>
<g>
</g>
<g>
</g>
<g>
</g>
<g>
</g>
</svg>